<?xml version="1.0" encoding="UTF-8" standalone="no"?>
<!-- Created with Inkscape (http://www.inkscape.org/) -->

<svg
   version="1.1"
   id="svg2"
   width="340.17227"
   height="248.27754"
   viewBox="0 0 340.17227 248.27754"
   sodipodi:docname="logoHole.svg"
   inkscape:version="1.2.2 (b0a8486541, 2022-12-01)"
   inkscape:export-filename="logo.png"
   inkscape:export-xdpi="96"
   inkscape:export-ydpi="96"
   xmlns:inkscape="http://www.inkscape.org/namespaces/inkscape"
   xmlns:sodipodi="http://sodipodi.sourceforge.net/DTD/sodipodi-0.dtd"
   xmlns="http://www.w3.org/2000/svg"
   xmlns:svg="http://www.w3.org/2000/svg">
  <defs
     id="defs6" />
  <sodipodi:namedview
     id="namedview4"
     pagecolor="#ffffff"
     bordercolor="#999999"
     borderopacity="1"
     inkscape:showpageshadow="0"
     inkscape:pageopacity="0"
     inkscape:pagecheckerboard="0"
     inkscape:deskcolor="#d1d1d1"
     showgrid="false"
     inkscape:zoom="1.2029102"
     inkscape:cx="284.31051"
     inkscape:cy="202.42576"
     inkscape:window-width="1864"
     inkscape:window-height="1052"
     inkscape:window-x="56"
     inkscape:window-y="0"
     inkscape:window-maximized="1"
     inkscape:current-layer="g8" />
  <g
     inkscape:groupmode="layer"
     inkscape:label="Image"
     id="g8"
     transform="translate(-341.91385,-218.85274)">
    <rect
       style="fill:#da6446;fill-opacity:1;stroke:#da6446;stroke-width:4.14673;stroke-linecap:round;stroke-miterlimit:3.4;stroke-opacity:1"
       id="rect291"
       width="336.02554"
       height="67.762238"
       x="343.98721"
       y="397.29468"
       ry="17.461027" />
    <path
       id="rect379"
       style="fill:#da6446;fill-opacity:1;stroke:#da6446;stroke-width:4.94625;stroke-linecap:round;stroke-miterlimit:3.4;stroke-opacity:1"
       d="M 481.44901 257.87032 C 405.51792 257.87032 344.38846 319.80362 344.38846 396.73555 L 344.38846 414.05196 L 679.61307 414.05196 L 679.61307 396.73555 C 679.61307 319.80362 618.48554 257.87032 542.55448 257.87032 L 481.44901 257.87032 z M 438.50369 342.14376 A 23.543198 25.355177 0 0 1 462.04666 367.49922 A 23.543198 25.355177 0 0 1 438.50369 392.85274 A 23.543198 25.355177 0 0 1 414.96073 367.49922 A 23.543198 25.355177 0 0 1 438.50369 342.14376 z M 585.49783 342.14376 A 23.543198 25.355177 0 0 1 609.0408 367.49922 A 23.543198 25.355177 0 0 1 585.49783 392.85274 A 23.543198 25.355177 0 0 1 561.95291 367.49922 A 23.543198 25.355177 0 0 1 585.49783 342.14376 z " />
    <g
       id="g8640"
       transform="translate(-3.954015,24.678653)">
      <rect
         style="fill:#da6446;fill-opacity:1;stroke:#da6446;stroke-width:4.73575;stroke-linecap:round;stroke-miterlimit:3.4;stroke-opacity:1"
         id="rect8604"
         width="26.158438"
         height="82.296211"
         x="226.854"
         y="367.44415"
         ry="13.079219"
         transform="rotate(-29.994023)" />
      <rect
         style="fill:#da6446;fill-opacity:1;stroke:#da6446;stroke-width:4.73575;stroke-linecap:round;stroke-miterlimit:3.4;stroke-opacity:1"
         id="rect8604-3"
         width="26.158438"
         height="82.296211"
         x="-666.8584"
         y="-148.41663"
         ry="13.079219"
         transform="matrix(-0.86607756,-0.49990965,-0.49990965,0.86607756,0,0)" />
    </g>
  </g>
</svg>
